<svg width="70" height="86" viewBox="0 0 70 86" fill="none" xmlns="http://www.w3.org/2000/svg">
<path d="M38.6349 36.5536C37.0628 36.5536 35.5551 35.929 34.4434 34.8174C33.3318 33.7057 32.7073 32.198 32.7073 30.6259C32.7073 29.0538 33.3318 27.5461 34.4434 26.4344C35.5551 25.3228 37.0628 24.6982 38.6349 24.6982C43.6117 24.6928 48.3827 22.7134 51.9019 19.1945C55.4207 15.6756 57.4005 10.9045 57.4062 5.92784C57.4062 4.35574 58.0306 2.84801 59.1424 1.73635C60.2538 0.624705 61.7617 0.000183105 63.3336 0.000183105C64.906 0.000183105 66.4138 0.624705 67.5252 1.73635C68.637 2.84801 69.2615 4.35574 69.2615 5.92784C69.2521 14.0476 66.0226 21.8321 60.281 27.5736C54.5394 33.315 46.7548 36.5445 38.6349 36.5536Z" fill="#EC6C0C"/>
<path d="M5.92806 85.9509C4.35591 85.9509 2.84813 85.3264 1.73644 84.2146C0.624748 83.1028 0.000198364 81.5954 0.000198364 80.0231C0.00932736 71.9032 3.23899 64.1186 8.98061 58.377C14.7223 52.6354 22.5069 49.4059 30.6267 49.3969C32.1988 49.3969 33.7065 50.0214 34.8182 51.1332C35.9299 52.2446 36.5544 53.7524 36.5544 55.3248C36.5544 56.8967 35.9299 58.4046 34.8182 59.516C33.7065 60.6278 32.1988 61.2522 30.6267 61.2522C25.6501 61.2579 20.8788 63.2373 17.3598 66.7561C13.8407 70.2753 11.8612 75.0463 11.8555 80.0231C11.8555 81.595 11.231 83.1028 10.1194 84.2146C9.00783 85.3264 7.50016 85.9509 5.92806 85.9509Z" fill="#BE3818"/>
<path d="M38.6349 85.9509C37.0713 85.9379 35.5761 85.3078 34.4751 84.1976C33.3739 83.0874 32.7561 81.5869 32.7561 80.0231C32.7561 78.4596 33.3739 76.9591 34.4751 75.8489C35.5761 74.7388 37.0713 74.1086 38.6349 74.0956C41.1 74.0956 43.5411 73.6099 45.8182 72.6669C48.0958 71.7235 50.1648 70.3406 51.908 68.5979C53.6512 66.8547 55.0336 64.7853 55.977 62.5081C56.9205 60.2305 57.4058 57.7894 57.4058 55.3244C57.4058 52.8594 56.9205 50.4187 55.977 48.1411C55.0336 45.8639 53.6512 43.7945 51.908 42.0513C50.1648 40.3084 48.0958 38.9257 45.8182 37.9824C43.5411 37.0391 41.1 36.5535 38.6349 36.5535C37.0628 36.5535 35.5551 35.929 34.4434 34.8174C33.3318 33.7057 32.7073 32.198 32.7073 30.6259C32.7073 29.0538 33.3318 27.5461 34.4434 26.4344C35.5551 25.3227 37.0628 24.6982 38.6349 24.6982C42.6662 24.6836 46.6606 25.4649 50.3892 26.9975C54.1182 28.53 57.5076 30.7836 60.363 33.629C63.2188 36.4743 65.485 39.8555 67.031 43.5786C68.5769 47.3016 69.3731 51.2931 69.3731 55.3244C69.3731 59.3557 68.5769 63.3476 67.031 67.0706C65.485 70.7935 63.2188 74.1747 60.363 77.02C57.5076 79.8656 54.1182 82.1193 50.3892 83.6518C46.6606 85.1844 42.6662 85.9655 38.6349 85.9509Z" fill="url(#paint0_linear)"/>
<path d="M59.8631 27.9817C62.8361 25.1297 65.2018 21.7056 66.8167 17.9156C68.4321 14.1254 69.2635 10.0477 69.2615 5.92784C69.2615 4.35574 68.637 2.84801 67.5252 1.73635C66.4138 0.624705 64.906 0.000183105 63.334 0.000183105C61.7617 0.000183105 60.2538 0.624705 59.1424 1.73635C58.0306 2.84801 57.4062 4.35574 57.4062 5.92784C57.4045 9.11641 56.591 12.2521 55.0418 15.0391C53.4929 17.8261 51.2596 20.1726 48.5523 21.8575C52.7139 23.0743 56.5695 25.1619 59.8631 27.9817Z" fill="url(#paint1_linear)"/>
<path d="M30.6276 61.2522C22.505 61.2522 14.7151 58.0256 8.97166 52.2819C3.22813 46.5387 0.00146484 38.7486 0.00146484 30.6261C0.00146484 22.5035 3.22813 14.7137 8.97166 8.97018C14.7151 3.22667 22.505 0 30.6276 0C32.1997 0 33.7074 0.624521 34.819 1.73617C35.9307 2.84782 36.5552 4.35555 36.5552 5.92766C36.5552 7.49976 35.9307 9.00747 34.819 10.1192C33.7074 11.2308 32.1997 11.8553 30.6276 11.8553C28.1626 11.8553 25.7217 12.3408 23.4443 13.2841C21.1669 14.2275 19.0977 15.6101 17.3546 17.3531C15.6116 19.0962 14.2289 21.1654 13.2856 23.4429C12.3423 25.7202 11.8568 28.1611 11.8568 30.6261C11.8568 33.0911 12.3423 35.532 13.2856 37.8094C14.2289 40.0868 15.6116 42.156 17.3546 43.8992C19.0977 45.642 21.1669 47.0248 23.4443 47.9682C25.7217 48.9112 28.1626 49.3969 30.6276 49.3969C32.1997 49.3969 33.7074 50.0214 34.819 51.1332C35.9307 52.2446 36.5552 53.7524 36.5552 55.3244C36.5552 56.8967 35.9307 58.4046 34.819 59.516C33.7074 60.6278 32.1997 61.2522 30.6276 61.2522Z" fill="url(#paint2_linear)"/>
<path d="M9.39899 57.9688C6.42569 60.8209 4.06023 64.2448 2.44499 68.035C0.829745 71.8253 -0.00187384 75.9029 0.000202898 80.023C-0.00627175 80.8058 0.142272 81.5816 0.437263 82.3067C0.732251 83.0314 1.16786 83.6908 1.71893 84.2463C2.27001 84.8022 2.92566 85.2432 3.64805 85.5439C4.37044 85.845 5.14529 86 5.92785 86C6.71046 86 7.48531 85.845 8.2077 85.5439C8.93009 85.2432 9.58573 84.8022 10.1368 84.2463C10.6879 83.6908 11.1235 83.0314 11.4185 82.3067C11.7134 81.5816 11.862 80.8058 11.8555 80.023C11.8571 76.8345 12.6708 73.6987 14.22 70.9115C15.7691 68.1243 18.0026 65.7777 20.7098 64.093C16.5481 62.8761 12.6927 60.7884 9.39899 57.9688Z" fill="#E64A1A"/>
<defs>
<linearGradient id="paint0_linear" x1="51.0401" y1="85.9509" x2="51.0401" y2="24.698" gradientUnits="userSpaceOnUse">
<stop stop-color="#E9592D"/>
<stop offset="1" stop-color="#F39519"/>
</linearGradient>
<linearGradient id="paint1_linear" x1="54.1645" y1="25.0996" x2="73.0302" y2="7.2149" gradientUnits="userSpaceOnUse">
<stop offset="0.005" stop-color="#F39519"/>
<stop offset="0.146" stop-color="#F39519"/>
<stop offset="1" stop-color="#F39519"/>
</linearGradient>
<linearGradient id="paint2_linear" x1="18.2783" y1="61.2522" x2="18.2783" y2="0" gradientUnits="userSpaceOnUse">
<stop stop-color="#E9592D"/>
<stop offset="1" stop-color="#F39519"/>
</linearGradient>
</defs>
</svg>
